<svg width="256" height="94" viewBox="0 0 256 94" fill="none" xmlns="http://www.w3.org/2000/svg">
<path d="M198.664 65.0819C198.664 65.0819 223.03 7.32585 212.2 1.91085C201.371 -3.50315 171.59 37.1059 171.59 37.1059L198.664 65.0819Z" fill="black"/>
<path d="M189.64 55.1549C189.64 55.1549 217.616 4.61886 205.884 1.91086C205.884 1.91086 230.25 -12.5281 198.664 65.0819L189.64 55.1549Z" fill="#D9C5AC"/>
<path d="M48.927 65.0819C48.927 65.0819 24.561 7.32585 35.39 1.91085C46.219 -3.50315 76 37.1059 76 37.1059L48.927 65.0819Z" fill="black"/>
<path d="M57.951 55.1549C57.951 55.1549 30.29 7.04986 40.891 2.11586C40.891 2.11586 17.022 -10.5521 48.926 65.0819L57.951 55.1549Z" fill="#D9C5AC"/>
<path d="M0.5 80L133.75 79.25L256 80C256 80 201.5 49 173.428 26.4272C141.5 17 56.5947 7.49131 48.5 42.5C21.705 79.9564 0.5 80 0.5 80Z" fill="black"/>
<path d="M144.414 75.7615C144.414 75.7615 150.095 43.3055 193.962 54.2575C193.962 54.2575 183.371 84.0605 144.414 75.7615Z" fill="#E1B538"/>
<path d="M162.927 67.5815C163.768 72.9355 161.757 77.6985 158.434 78.2205C155.111 78.7425 151.736 74.8255 150.895 69.4725C150.054 64.1185 152.065 59.3555 155.388 58.8335C158.711 58.3115 162.087 62.2285 162.927 67.5815Z" fill="#1D1D1B"/>
<path d="M106.985 76.6595C106.985 76.6595 99.754 44.5135 56.463 57.5565C56.463 57.5565 68.47 86.8175 106.985 76.6595Z" fill="#E1B538"/>
<path d="M64.972 62.9855C64.383 68.4195 67.111 73.1725 71.064 73.6005C75.017 74.0285 78.699 69.9705 79.287 64.5365C79.875 59.1025 77.148 54.3495 73.195 53.9215C69.242 53.4925 65.56 57.5505 64.972 62.9855Z" fill="#1D1D1B"/>
<path d="M118.353 66H133.645C136.959 66 138.722 68.531 136.529 70.139L128.321 76.1581C126.716 77.3351 123.848 77.2682 122.378 76.0191L115.294 69.9999C113.365 68.3604 115.17 66 118.353 66Z" fill="#E1B538"/>
<path d="M118.678 66L103.5 18.8875C103.5 18.8875 122.652 16.5952 144.5 19.3787L133.94 66H118.678Z" fill="#D9C5AC"/>
<rect y="79" width="256" height="15" fill="black"/>
</svg>
