<svg width="330" height="218" viewBox="0 0 330 218" fill="none" xmlns="http://www.w3.org/2000/svg">
<g clip-path="url(#clip0_1_157)">
<path d="M289.74 194.45C299.35 197.65 270.18 199.75 260.44 202.53C256.11 203.77 250.3 206.8 247.31 208.59" stroke="black"/>
<path fill-rule="evenodd" clip-rule="evenodd" d="M100.493 75.177L112.643 78.748L126.923 78.034L141.923 68.748L151.923 60.891L172.643 50.891L194.073 45.177L212.643 41.606L238.353 43.748L252.643 48.034L267.643 63.034L282.643 83.034L286.923 98.75L291.213 115.89L289.073 138.75L286.213 154.46L276.923 167.32L270.493 177.32L259.783 187.32L251.213 193.03L249.783 193.75H263.353L275.493 191.61L288.353 182.32L299.783 163.03L306.923 143.03L308.353 131.61L309.783 117.32L310.493 98.03L306.213 78.748L310.493 73.748L320.493 72.32L326.213 83.034L328.353 95.89L329.073 111.61L328.353 129.46L326.923 143.03L320.493 158.75L314.783 170.89L307.643 181.61L299.783 195.89L287.643 204.46L269.073 206.61H249.073L229.783 194.46L226.923 199.46L202.643 200.89L189.073 208.03L179.783 217.32L169.783 214.46C169.783 214.46 167.643 209.46 167.643 206.61C167.643 203.75 171.923 195.18 171.923 195.18L179.073 188.03L192.643 178.75C192.643 178.75 202.643 174.46 207.643 173.75C212.643 173.03 217.643 173.03 217.643 173.03L190.493 178.75L178.353 183.03L177.643 185.18C177.643 185.18 179.073 185.18 172.643 187.32C166.213 189.46 133.353 194.46 133.353 194.46L107.643 200.18L90.493 196.61L82.643 191.61L76.923 185.89L84.073 179.46L87.643 173.75L80.493 183.75L70.493 190.18L51.213 205.89L40.493 208.75L28.353 205.89C28.353 205.89 24.783 195.89 29.073 194.46C33.353 193.03 39.783 187.32 39.783 187.32L55.493 170.89L64.783 163.75L67.643 160.89C67.643 160.89 69.783 159.46 70.493 156.61C71.213 153.75 64.783 161.61 64.783 161.61L61.213 165.89L47.643 160.18L41.923 149.46L46.923 140.18L57.643 131.61L44.783 141.61L43.353 148.75L36.923 158.75L19.073 170.89L3.35299 174.46L1.213 170.18L0.492996 155.89L6.923 148.75L16.923 135.18C16.923 135.18 29.073 128.03 31.923 123.75C34.783 119.46 43.353 112.32 43.353 112.32L47.643 105.89L64.783 96.61L100.493 75.177Z" fill="#352B2B" stroke="black"/>
<path d="M198.893 71.087C196.843 70.201 194.383 68.186 191.413 64.967L186.983 60.167L186.993 56.132C187.013 49.988 188.603 46.76 192.613 44.715C195.383 43.297 196.723 43.065 202.203 43.06C207.813 43.054 208.743 43.22 209.923 44.436C210.653 45.196 212.873 46.531 214.843 47.402C218.183 48.88 218.503 49.214 219.563 52.37C220.683 55.685 220.633 61.619 219.473 63.538C219.233 63.93 216.973 65.923 214.453 67.967C210.263 71.368 209.543 71.715 205.913 72.046C202.823 72.328 201.263 72.116 198.893 71.087Z" fill="#E5E5E1" stroke="black" stroke-width="0.63306"/>
<path d="M33.163 207.45C29.133 206.58 28.023 205.88 27.453 203.85C26.113 199 26.553 197.93 31.253 194.76C35.923 191.61 55.263 173.79 71.883 157.33C80.043 149.25 81.043 148.58 87.663 146.83C91.603 145.78 96.373 143.67 98.423 142.07C101.563 139.61 103.013 139.2 108.393 139.2C113.513 139.2 115.663 138.64 119.883 136.23C124.293 133.71 126.583 133.16 135.153 132.57C144.513 131.93 145.683 132.06 151.303 134.43C154.643 135.83 160.433 137.3 164.173 137.7C170.933 138.42 170.993 138.45 173.813 143.1C177.293 148.83 182.113 166.5 182.113 173.52C182.113 178.11 181.703 179.09 178.333 182.55C173.513 187.48 165.523 189.82 143.733 192.67C139.563 193.22 130.243 195.04 123.023 196.71C105.323 200.81 98.693 200.73 97.823 196.4C97.583 195.22 96.833 190.42 96.163 185.74C95.133 178.53 94.453 176.7 91.803 173.8L88.663 170.38L84.393 176.43C81.873 180.01 77.373 184.48 73.403 187.36C69.713 190.04 63.223 195.11 58.993 198.62C48.403 207.42 42.463 209.45 33.163 207.45Z" fill="#E5E5E1" stroke="black" stroke-width="1.0102"/>
<path d="M16.453 154.41C12.673 153.65 6.83299 150.89 5.93299 149.45C4.86299 147.7 16.283 134.02 22.343 129.79C25.673 127.46 33.003 120.56 38.633 114.45C45.333 107.17 50.513 102.51 53.623 100.94C56.233 99.63 67.623 93.07 78.933 86.381L99.493 74.213L106.443 76.015C114.713 78.159 124.883 77.488 130.013 74.46L133.283 72.532L134.363 77.328C134.953 79.966 135.193 83.715 134.893 85.66C134.253 89.86 128.093 99.27 121.213 106.57C116.983 111.06 115.053 112.22 108.023 114.55C103.493 116.05 98.203 118.35 96.273 119.65C93.003 121.85 91.763 122.03 79.003 122.03H65.243L56.763 128.51C44.713 137.72 43.253 139.21 41.763 143.74C40.053 148.95 38.923 150.31 36.283 150.32C35.093 150.32 31.693 151.46 28.723 152.84C23.083 155.47 22.233 155.58 16.453 154.41Z" fill="#E5E5E1" stroke="black" stroke-width="1.0102"/>
<path fill-rule="evenodd" clip-rule="evenodd" d="M57.403 24.75L72.553 22.73L85.683 23.74L93.763 24.75L111.953 30.81L126.093 39.9L136.193 56.07L141.243 69.2L135.183 92.43L121.043 116.67L96.793 132.84L84.673 137.89L62.453 131.83L47.303 118.69L30.123 102.53L23.053 82.33L20.023 62.13L23.053 45.96L33.153 32.83L57.403 24.75Z" fill="#352B2B" stroke="black"/>
<path fill-rule="evenodd" clip-rule="evenodd" d="M30.123 1.51001L25.073 16.67L24.063 27.78L25.073 41.92L27.093 47.98L39.213 36.87L52.343 31.82L59.423 32.83L48.303 13.63L40.223 6.56L30.123 1.51001Z" fill="#2F2817" stroke="black"/>
<path fill-rule="evenodd" clip-rule="evenodd" d="M119.523 0.5L124.573 15.66L125.583 26.77L124.573 40.91L122.553 46.97L110.433 35.86L97.303 30.81L90.223 31.82L101.343 12.62L109.423 5.55002L119.523 0.5Z" fill="#2F2817" stroke="black"/>
<path fill-rule="evenodd" clip-rule="evenodd" d="M69.523 53.03L74.573 44.95L83.663 43.94L87.703 48.99L91.743 57.08L93.763 66.17V71.22L96.793 84.35L93.763 94.45L91.743 101.52L94.773 108.59L101.843 115.66L110.943 120.71L112.963 123.75L105.893 128.8L93.763 135.87L88.713 138.9L84.673 139.91L74.573 135.87L66.493 133.85L56.393 127.79L47.303 119.7L58.413 109.6L60.433 101.52L63.463 95.46L64.473 90.41L65.483 76.27L66.493 63.14L69.523 53.03Z" fill="#E5E5E1" stroke="black"/>
<path fill-rule="evenodd" clip-rule="evenodd" d="M65.3888 101.943C71.5854 99.1106 76.0801 97.9381 76.0801 97.9381L81.3927 98.3764L86.7741 100.621L85.4136 104.624L80.784 108.871L75.8129 110.776L69.8861 107.458L65.3888 101.943Z" fill="#EC899F" stroke="black" stroke-width="0.676005"/>
<path d="M106.879 125.175L92.8493 127.618L79.6354 124.985L73.7086 121.667L63.9628 124.209L54.2879 121.863L44.6817 114.641L42.2279 109.809L44.9544 115.177L54.5605 122.4L65.7337 124.355L72.7557 123.132L75.8871 119.275L75.0638 110.971L74.8653 118.933L73.436 121.13L79.3627 124.448L90.0567 127.131L106.879 125.175ZM106.879 125.175L113.348 122.879" stroke="black" stroke-width="0.676005"/>
<path d="M119.023 100.51C120.033 101.16 130.253 103.16 137.203 104.55C145.593 106.23 147.723 110.02 153.363 115.66C154.433 116.73 156.063 117.01 157.403 117.68" stroke="black"/>
<path d="M110.943 109.6C110.953 109.62 122.933 113.3 126.093 115.66C131.923 120.04 136.873 123.3 144.273 125.77C150.633 127.88 142.193 125.77 146.293 125.77" stroke="black"/>
<path d="M48.313 108.59C45.663 109.35 35.763 113.35 31.133 115.66C24.443 119.01 23.063 121.72 18.003 126.78C15.823 128.96 15.853 129.08 12.953 129.81" stroke="black"/>
<path fill-rule="evenodd" clip-rule="evenodd" d="M32.912 58.651C42.395 57.288 46.771 57.97 46.771 57.97L56.255 61.377L65.008 69.555L68.655 77.732V87.273L67.926 92.725L56.984 90.68L45.313 87.273L38.747 83.866L33.641 76.369L29.994 66.829L32.912 58.651Z" fill="#BFD520" stroke="black" stroke-width="0.69797"/>
<path fill-rule="evenodd" clip-rule="evenodd" d="M48.23 58.651L46.042 65.466L45.313 75.006L47.501 81.14L50.419 83.184L51.878 79.095L52.607 72.28L53.337 64.784L51.878 60.014L48.23 58.651Z" fill="#101205" stroke="black" stroke-width="0.69797"/>
<path fill-rule="evenodd" clip-rule="evenodd" d="M124.324 57.641C114.841 56.278 110.465 56.96 110.465 56.96L100.981 60.367L92.228 68.545L88.581 76.722V86.263L89.31 91.715L100.252 89.67L111.923 86.263L118.489 82.856L123.595 75.359L127.242 65.819L124.324 57.641Z" fill="#BFD520" stroke="black" stroke-width="0.69797"/>
<path fill-rule="evenodd" clip-rule="evenodd" d="M109.006 57.641L111.194 64.456L111.923 73.996L109.735 80.13L106.817 82.174L105.358 78.085L104.629 71.27L103.899 63.774L105.358 59.004L109.006 57.641Z" fill="#101205" stroke="black" stroke-width="0.69797"/>
</g>
<defs>
<clipPath id="clip0_1_157">
<rect width="329.57" height="217.81" fill="white"/>
</clipPath>
</defs>
</svg>
