<svg xmlns="http://www.w3.org/2000/svg" version="1.1" viewBox="-5.0 -10.0 110.0 135.0">
 <g>
  <path d="m74.453 52.703c-0.13672-1.168-0.86328-2.1875-1.9219-2.7031-1.6055-0.45703-3.3281-0.25781-4.7812 0.5625 0.15234-1.6094 0.12109-3.2266-0.09375-4.8281v-0.17188c-0.15625-2.2656-0.40625-4.3594-0.5-5.125 0.9375-0.98047 1.2617-2.3984 0.84375-3.6875-0.19531-1.3828-0.95312-2.6211-2.0938-3.4219-1.0078-0.65234-2.2109-0.94141-3.4062-0.8125-1.5195-1.4258-3.2812-2.5664-5.2031-3.375 0.31641-2.293 0.24219-4.6211-0.21875-6.8906 0.85938-2.0312 5.8906-14.5 1.75-16.641s-10.062 6.5781-11.641 8.9062c-1.9531-1.2344-5.2656-0.78125-6.3438-0.57812-1.375-2.0625-7.8125-11.219-11.875-8.7031s-0.26562 14.484 0.5625 16.938c-3.5625 3.7812-1.4688 10.281-0.95312 11.688-0.98438 1.4688-5.6094 9.5312-1.5625 25.969 4.2344 16.734 18.438 15.828 20.688 15.594 0.8125 0.96875 4.1719 5.2344 3.8906 8.5312-0.082031 0.97656-0.5625 1.875-1.3281 2.4844-3.3906 2.625-5.4531 0.60938-8.3906-2.2656-0.75-0.73438-1.5625-1.4688-2.3438-2.1719-2-1.7188-3.2969-1.5625-4.0469-1.0781-1.5625 0.95312-1.9688 3.9688-1.4688 6.25 0.82812 3.9219 4.3906 6.7969 9.4844 7.7031 1.0352 0.16797 2.0781 0.25781 3.125 0.26562 4.6875 0 9.9219-1.8125 12.688-6.25 5.3906-8.6406 0.85938-13.375-1.3281-15.625-0.17578-0.14062-0.33203-0.30469-0.46875-0.48438-1.5625-1.5625-1.6719-2.1562-1.6719-2.2812 0.13672-0.011719 0.26953-0.011719 0.40625 0h0.23438c7.9375 0.48438 10.656-7.9688 11.219-10.188 1.7734 0.35938 3.6133-0.15625 4.9375-1.3906 1.6719-1.5977 2.3633-3.9727 1.8125-6.2188zm-17.266-43.469c2.6562 1.2812-1.3438 9.4844-1.3438 9.4844-1.2734-2.25-3.543-3.7578-6.1094-4.0625 0 0 4.8281-6.7031 7.4531-5.4219zm-5.8594 10.109c1.4219 0 2.5781 1.8438 2.5781 4.125s-1.1562 4.125-2.5781 4.125-2.5938-1.8594-2.5938-4.1562 1.1719-4.0938 2.5938-4.0938zm-4.2188 7.7188c0.65625 0 1.1875 0.23438 1.1875 0.89062s-0.53125 1.4531-1.1875 1.4531-1.1562-0.82812-1.1562-1.4531 0.53125-0.89062 1.1562-0.89062zm1.5625 2.8281c-2.5703 1.3008-4.6953 3.3398-6.0938 5.8594 0.37109-1.5625 1.25-2.9609 2.5-3.9688 0.96875-1.0234 2.2578-1.6914 3.6562-1.8906zm-16.734-11.141s-4-8.2031-1.375-9.4844 7.4844 5.4219 7.4844 5.4219c-2.5664 0.30469-4.8359 1.8125-6.1094 4.0625zm7.125 4.9219c0-2.5156 1.2812-4.5625 2.875-4.5625s2.875 2.0469 2.875 4.5625-1.2812 4.5938-2.875 4.5938-2.875-2.0625-2.875-4.5938zm14.547 43.75c0.023437 0.082031-0.007813 0.17188-0.074219 0.22656-0.066406 0.054687-0.16016 0.0625-0.23828 0.023437-0.375-0.25781-0.71875-0.55859-1.0312-0.89062-0.30859 0.33984-0.66016 0.64062-1.0469 0.89062-0.16406 0.082031-0.34375-0.078125-0.28125-0.25 0.18359-0.48828 0.4375-0.94531 0.75-1.3594-0.30859-0.42188-0.56641-0.87891-0.76562-1.3594-0.027344-0.089844 0-0.18359 0.074219-0.24219 0.074218-0.054688 0.17578-0.058594 0.25391-0.007813 0.375 0.25391 0.71484 0.55469 1.0156 0.89062 0.30859-0.33203 0.65625-0.63281 1.0312-0.89062 0.078125-0.039063 0.17188-0.03125 0.23828 0.023437 0.066406 0.054688 0.097656 0.14453 0.074219 0.22656-0.1875 0.48438-0.44141 0.94141-0.75 1.3594 0.30078 0.42969 0.53125 0.90625 0.6875 1.4062zm13.203-17.188c-0.015625 0.089844-0.015625 0.17578 0 0.26562-0.25781 2.9336-1.6914 5.6367-3.9688 7.5-0.46094 0.40234-0.88672 0.84766-1.2656 1.3281-1.4531 1.9219-4.6875 1.2812-7.0156 0.1875-1.1094-0.57031-1.8164-1.707-1.8438-2.9531-0.050781-0.41016 0.042969-0.82422 0.26562-1.1719 1.25-0.28125 2.5938-1.5625 2.5938-4.6875-0.12109-1.4844-1.2461-2.6953-2.7188-2.9219-1.6562-0.51562-3.8906-0.35938-4.6875 0.90625-1 1.5625-3.4688 3.5156-5.8281 3.125-1.2344-0.3125-2.0469-1.4844-1.9062-2.75 1.4258-1.2773 2.6562-2.7578 3.6562-4.3906 0.14062-0.375 0.48438-1.1406 0.75-1.2031s0.45312 0 1.2344 0.6875c0.75391 0.79688 1.8281 1.2148 2.9219 1.1406 1.2852-0.375 2.3281-1.3125 2.8438-2.5469 1.5625-2.75 0.23438-3.5781-1.3281-4.5625-0.5-0.30859-0.98438-0.64453-1.4531-1-1.8906-1.4375-4.6875-0.82812-6.125-0.375 1.7617-3.9141 5.4805-6.5898 9.75-7.0156 3.2656-0.089844 6.4531 1.0195 8.9531 3.125-1.0781 0.95312-3.4531 3.3594-2.4219 5.2188s5.3438 2.4844 6.875 2.4844c0 0.60938 0.15625 1.9219 0.51562 4.6875 0.15625 1.6602 0.20703 3.332 0.14062 5z"/>
  <path d="m42.859 23.688c0-1.4531-0.48438-2.625-1.0625-2.625s-1.0781 1.1719-1.0781 2.625 0.48438 2.625 1.0781 2.625 1.0625-1.1719 1.0625-2.625z"/>
  <path d="m51.562 26.094c0.59375 0 1.0625-1.1719 1.0625-2.625s-0.46875-2.6406-1.0625-2.6406-1.0625 1.1875-1.0625 2.6406 0.39062 2.625 1.0625 2.625z"/>
  <path d="m57.297 46.078c0-1.2031-0.51562-2.1875-1.1562-2.1875s-1.1719 0.98438-1.1719 2.1875 0.51562 2.2031 1.1719 2.2031 1.1562-0.98438 1.1562-2.2031z"/>
  <path d="m60.25 49.516c0.35938 0 0.65625 0 0.65625-0.75s-0.29688-1.7344-0.65625-1.7344-0.65625 1.0625-0.65625 1.7344 0.28125 0.75 0.65625 0.75z"/>
  <path d="m63.609 43.531c-0.65625 0-1.1719 0.98438-1.1719 2.1875s0.51562 2.2031 1.1719 2.2031 1.1562-0.98438 1.1562-2.2031-0.51562-2.1875-1.1562-2.1875z"/>
  <path d="m63.906 52.219s-0.28125 0.09375-0.71875 0.1875v-0.84375c0-0.13672-0.11328-0.25-0.25-0.25-0.14062 0-0.25781 0.10938-0.26562 0.25v0.9375c-0.72266 0.16016-1.4609 0.26172-2.2031 0.29688v-1.2344c0-0.13672-0.11328-0.25-0.25-0.25s-0.25 0.11328-0.25 0.25v1.25c-0.65234 0.023438-1.3047-0.039062-1.9375-0.1875l0.20312-1.2188c0.007813-0.066406-0.007813-0.13281-0.050781-0.1875-0.039063-0.050781-0.10156-0.085938-0.16797-0.09375-0.066406-0.011719-0.13281 0-0.1875 0.039062-0.050781 0.039063-0.085937 0.097657-0.09375 0.16406l-0.1875 1.125c-0.21094-0.0625-0.41406-0.14062-0.60938-0.23438-0.058594-0.03125-0.12891-0.039062-0.19531-0.019531-0.066407 0.023437-0.11719 0.066406-0.14844 0.12891-0.039062 0.058594-0.050781 0.12891-0.03125 0.19531 0.015625 0.0625 0.0625 0.12109 0.125 0.14844 0.25 0.125 0.50391 0.23438 0.76562 0.32812l-0.17188 1.0781c-0.011719 0.066406 0 0.13672 0.039062 0.19141 0.039063 0.054688 0.097657 0.09375 0.16406 0.10547 0.125 0 0.23438-0.09375 0.25-0.21875l0.17188-1.0312c0.62891 0.14453 1.2734 0.21484 1.9219 0.21875h0.09375v1.8438c0 0.13672 0.11328 0.25 0.25 0.25s0.25-0.11328 0.25-0.25v-1.8438c0.75391-0.019531 1.5078-0.089844 2.25-0.21875v1.2812c0.007813 0.14062 0.125 0.25 0.26562 0.25 0.066406 0 0.12891-0.027344 0.17578-0.074219s0.074219-0.10938 0.074219-0.17578v-1.3906c0.29688-0.0625 0.58594-0.14062 0.875-0.23438 0.12891-0.042969 0.19922-0.18359 0.15625-0.3125 0.011719-0.082031-0.023438-0.16016-0.085938-0.21094-0.0625-0.054687-0.14844-0.066406-0.22656-0.039062z"/>
  <path d="m45 35.938s1.1562-1.2188 2-1.9375 3.125-2.4375 3.125-2.4375c-4.2969 1.8906-5.125 4.375-5.125 4.375z"/>
 </g>
<text x="0.0" y="117.5" font-size="5.0" font-weight="bold" font-family="Arbeit Regular, Helvetica, Arial-Unicode, Arial, Sans-serif" fill="#000000">Created by Bondan siswanto</text><text x="0.0" y="122.5" font-size="5.0" font-weight="bold" font-family="Arbeit Regular, Helvetica, Arial-Unicode, Arial, Sans-serif" fill="#000000">from Noun Project</text></svg>